<svg width="147" height="144" viewBox="0 0 147 144" fill="none" xmlns="http://www.w3.org/2000/svg">
<path d="M33.2629 101.384L41.8216 141.297H108.334L84.8811 109.841" stroke="#4493BE" stroke-width="0.769171" stroke-linecap="round" stroke-linejoin="round"/>
<path d="M35.8308 43.7843C32.1014 43.1093 25.0145 41.956 20.7042 42.08C18.3301 41.9098 15.9802 42.6499 14.1322 44.1499C12.2842 45.65 11.0767 47.7975 10.7551 50.1559C10.4335 52.5142 11.0219 54.9066 12.4009 56.8468C13.7798 58.7869 15.8456 60.1292 18.1786 60.6008L30.2777 94.188" stroke="#4493BE" stroke-width="0.769171" stroke-linecap="round" stroke-linejoin="round"/>
<path d="M100.158 130.33H50.5133L44.2988 102.748" stroke="#4493BE" stroke-width="0.769171" stroke-linecap="round" stroke-linejoin="round"/>
<path d="M29.3859 51.4202C29.3859 53.2725 28.8366 55.0831 27.8075 56.6233C26.7784 58.1633 25.3158 59.3638 23.6045 60.0726C21.8932 60.7814 20.0102 60.9669 18.1935 60.6055C16.3768 60.2442 14.7081 59.3522 13.3983 58.0424C12.0885 56.7326 11.1966 55.0639 10.8352 53.2473C10.4738 51.4305 10.6594 49.5475 11.3682 47.8363C12.077 46.1249 13.2774 44.6623 14.8175 43.6333C16.3576 42.6041 18.1683 42.0549 20.0206 42.0549C22.5044 42.0549 24.8865 43.0416 26.6428 44.7979C28.3991 46.5543 29.3859 48.9364 29.3859 51.4202Z" stroke="#4493BE" stroke-width="0.769171" stroke-linecap="round" stroke-linejoin="round"/>
<path d="M28.5249 55.3407C28.5249 55.3407 28.2723 65.5846 29.5634 70.2722" stroke="#4493BE" stroke-width="0.769171" stroke-linecap="round" stroke-linejoin="round"/>
<path d="M92.6856 107.376L93.0143 107.707L116.718 131.571L116.811 131.533C116.948 131.477 117.145 131.396 117.389 131.294C117.877 131.09 118.552 130.805 119.296 130.479C120.705 129.862 122.357 129.101 123.476 128.468C120.791 125.045 114.2 116.738 107.473 108.98C104.05 105.033 100.595 101.231 97.6018 98.2881C96.105 96.8162 94.7263 95.5616 93.5269 94.6114C92.3381 93.6697 91.341 93.04 90.5883 92.7859H69.1795H68.9872V92.5936C68.9872 91.8921 68.9848 91.3583 68.983 90.9476C68.9803 90.3487 68.9788 90.0113 68.9876 89.7964C68.9952 89.6091 69.0109 89.4994 69.044 89.3859C69.059 89.3343 69.0772 89.2834 69.0965 89.2293L69.0977 89.226L66.1698 88.7439C63.8536 91.2336 61.1774 93.3606 58.2314 95.0547H70.0535C71.9084 95.0547 73.6873 95.7913 74.9988 97.1032C74.9989 97.1032 74.9989 97.1032 74.9989 97.1032M92.6856 107.376L76.855 102.048C76.855 100.245 76.1387 98.5142 74.8629 97.2392L74.9989 97.1032M92.6856 107.376V107.526C92.661 107.521 92.6359 107.519 92.6107 107.517C92.532 107.514 92.4537 107.527 92.3804 107.554L92.378 107.555C92.304 107.583 92.2361 107.627 92.1793 107.683C92.1231 107.738 92.0785 107.806 92.0496 107.879C92.0197 107.953 92.0059 108.033 92.0092 108.113C92.0117 108.193 92.0314 108.271 92.0657 108.342C92.0889 108.39 92.1278 108.438 92.1485 108.462C92.1611 108.477 92.1726 108.49 92.181 108.499L92.1913 108.511L92.1944 108.514L92.1954 108.515L92.1957 108.515L92.1958 108.515L92.1959 108.515L92.1959 108.516L92.1959 108.516L92.1988 108.519L115.518 131.994C113.437 132.69 111.324 133.282 109.184 133.767C107.893 132.459 106.514 131.057 105.084 129.604C101.294 125.752 97.1509 121.54 93.3641 117.772C90.7426 115.163 88.2908 112.765 86.2442 110.845C84.2008 108.927 82.5523 107.477 81.5411 106.77C80.0315 105.714 78.6772 105.169 77.3546 104.969C76.0333 104.769 74.7575 104.917 73.4101 105.227C72.5153 105.434 71.5784 105.715 70.5732 106.017C70.0721 106.167 69.554 106.322 69.0157 106.476C67.391 106.941 65.5619 107.397 63.4021 107.674L63.402 107.674C57.3876 108.448 53.2062 107.552 50.3213 106.283C47.7934 105.17 46.2524 103.768 45.3293 102.919M92.6856 107.376L45.3293 102.919M74.9989 97.1032C76.3108 98.4143 77.0473 100.194 77.0473 102.048V102.237L76.8592 102.241L45.3293 102.919M74.9989 97.1032L45.3293 102.919" fill="#4493BE" stroke="#4493BE" stroke-width="0.384585"/>
<path d="M69.3533 89.0738L66.0991 88.5358" stroke="#4493BE" stroke-width="0.769171" stroke-linecap="round" stroke-linejoin="round"/>
<path d="M44.8445 102.735C46.5588 104.266 51.3344 109.419 63.4266 107.863C72.1184 106.745 75.4713 102.759 81.4309 106.925C85.4236 109.716 99.6679 124.399 109.123 133.976C112.343 133.251 118.766 131.536 123.764 128.521C118.578 121.904 96.9425 94.6616 90.6194 92.5906" stroke="#4493BE" stroke-width="0.769171" stroke-linecap="round" stroke-linejoin="round"/>
<path d="M125.711 130.61L125.711 130.61L125.716 130.612C128.609 132.122 137.67 136.877 142.828 139.929C133.082 140.119 120.134 139.796 115.061 139.649C113.603 138.225 111.688 136.302 109.502 134.088C112.787 133.33 118.875 131.654 123.706 128.782C124.224 129.536 124.91 130.162 125.711 130.61Z" fill="white" stroke="#4493BE" stroke-width="0.384585"/>
<path d="M143.502 140.107C138.467 137.078 128.808 132.009 125.805 130.442C124.977 129.979 124.276 129.32 123.764 128.523C118.767 131.538 112.343 133.252 109.123 133.978C111.436 136.322 113.461 138.357 114.981 139.839C120.114 139.988 133.635 140.328 143.502 140.107Z" stroke="#4493BE" stroke-width="0.769171" stroke-linecap="round" stroke-linejoin="round"/>
<path d="M143.502 140.107C133.635 140.329 120.114 139.989 114.98 139.839C115.848 140.769 116.796 141.62 117.812 142.383C119.426 143.004 146.501 142.736 146.619 142.383C146.699 142.14 145.444 141.274 143.502 140.107Z" stroke="#4493BE" stroke-width="0.769171" stroke-linecap="round" stroke-linejoin="round"/>
<path d="M71.192 83.3777L69.1799 89.6113H108.665L97.154 78.3702" stroke="#4493BE" stroke-width="0.769171" stroke-linecap="round" stroke-linejoin="round"/>
<path d="M108.665 89.611H69.1799V92.5911H108.665V89.611Z" stroke="#4493BE" stroke-width="0.769171" stroke-linecap="round" stroke-linejoin="round"/>
<path d="M79.2775 76.394L87.2529 76.3771L92.0025 86.3524H72.574L72.8365 83.0041" stroke="#4493BE" stroke-width="0.769171" stroke-linecap="round" stroke-linejoin="round"/>
<path d="M89.1968 75.5114L89.1541 75.6062L89.21 75.6938L91.92 79.9398L92.1123 80.241L92.2578 79.9147L96.9262 69.4433L96.995 69.289L96.8509 69.201L93.2615 67.0075L93.0754 66.8938L92.9859 67.0927L89.1968 75.5114ZM87.464 76.3731L93.2579 62.905L100.137 66.2879L91.9906 85.8801L87.464 76.3731Z" fill="white" stroke="#4493BE" stroke-width="0.384585"/>
<path d="M87.2529 76.3771L92.0025 86.3524L100.384 66.1951L93.1612 62.6432L87.2529 76.3771Z" stroke="#4493BE" stroke-width="0.769171" stroke-linecap="round" stroke-linejoin="round"/>
<path d="M92.0024 86.3523H92.6269C92.9798 86.3523 93.3249 86.2474 93.6188 86.0523C93.9127 85.8563 94.1415 85.5778 94.2777 85.2525L101.402 68.2056C101.503 67.964 101.525 67.6965 101.466 67.4415C101.405 67.1865 101.266 66.957 101.068 66.7859L100.384 66.1951L92.0024 86.3523Z" stroke="#4493BE" stroke-width="0.769171" stroke-linecap="round" stroke-linejoin="round"/>
<path d="M92.4089 64.3914L99.4132 68.5288" stroke="#4493BE" stroke-width="0.769171" stroke-linecap="round" stroke-linejoin="round"/>
<path d="M89.3721 75.591L92.0851 79.8325L96.7506 69.3612L93.1612 67.1678L89.3721 75.591Z" stroke="#4493BE" stroke-width="0.769171" stroke-linecap="round" stroke-linejoin="round"/>
<path d="M92.3154 69.0485L95.816 71.4593" stroke="#4493BE" stroke-width="0.769171" stroke-linecap="round" stroke-linejoin="round"/>
<path d="M92.0025 86.3524H72.574C72.5999 86.8437 72.8193 87.3044 73.1842 87.6343C73.549 87.9641 74.0296 88.1363 74.521 88.1126H92.0025V86.3524Z" stroke="#4493BE" stroke-width="0.769171" stroke-linecap="round" stroke-linejoin="round"/>
<path d="M84.2521 79.9566L83.5089 77.8458H81.1548" stroke="#4493BE" stroke-width="0.769171" stroke-linecap="round" stroke-linejoin="round"/>
<path d="M80.3184 78.4711L80.4561 79.3673" stroke="#4493BE" stroke-width="0.769171" stroke-linecap="round" stroke-linejoin="round"/>
<path d="M80.6511 80.6339L80.9144 82.3474H85.0931L84.252 79.9565H80.9542" stroke="#4493BE" stroke-width="0.769171" stroke-linecap="round" stroke-linejoin="round"/>
<path d="M83.7806 78.0381H85.788L86.5672 79.7643H84.3883L83.7806 78.0381Z" fill="black" stroke="#4493BE" stroke-width="0.384585"/>
<path d="M86.865 79.9566L85.9122 77.8458H83.509L84.2522 79.9566H86.865Z" stroke="#4493BE" stroke-width="0.769171" stroke-linecap="round" stroke-linejoin="round"/>
<path d="M74.9235 83.4457L74.8921 84.5822H81.2588" stroke="#4493BE" stroke-width="0.769171" stroke-linecap="round" stroke-linejoin="round"/>
<path d="M84.252 79.9565L85.093 82.3474H87.9447L86.8648 79.9565H84.252Z" stroke="#4493BE" stroke-width="0.769171" stroke-linecap="round" stroke-linejoin="round"/>
<path d="M85.88 84.582H88.9543L87.9449 82.3473H85.0933L85.88 84.582Z" stroke="#4493BE" stroke-width="0.769171" stroke-linecap="round" stroke-linejoin="round"/>
<path d="M80.9146 82.3473L81.259 84.582H85.88L85.0932 82.3473H80.9146Z" stroke="#4493BE" stroke-width="0.769171" stroke-linecap="round" stroke-linejoin="round"/>
<path d="M1.21118 25.0438H141.273" stroke="#4493BE" stroke-width="0.769171" stroke-linecap="round" stroke-linejoin="round"/>
<path d="M6.26318 16.8487H28.241" stroke="#4493BE" stroke-width="0.769171" stroke-linecap="round" stroke-linejoin="round"/>
<path d="M60.2532 16.8486H82.231" stroke="#4493BE" stroke-width="0.769171" stroke-linecap="round" stroke-linejoin="round"/>
<path d="M114.243 16.8486H136.22" stroke="#4493BE" stroke-width="0.769171" stroke-linecap="round" stroke-linejoin="round"/>
<path d="M43.1182 1.0791V25.0437" stroke="#4493BE" stroke-width="0.769171" stroke-linecap="round" stroke-linejoin="round"/>
<path d="M99.3657 1.07898V25.0436" stroke="#4493BE" stroke-width="0.769171" stroke-linecap="round" stroke-linejoin="round"/>
<path d="M78.9139 48.182C79.0614 47.8271 79.1368 47.4469 79.1368 47.0631C79.1368 46.4848 78.9656 45.9195 78.6435 45.4385C78.3224 44.9578 77.8662 44.5832 77.3321 44.3619C76.7979 44.1406 76.2098 44.0826 75.6428 44.1955C75.0752 44.3083 74.5542 44.5868 74.1454 44.9956L74.1454 44.9957C73.7367 45.4045 73.4582 45.9255 73.3454 46.4926C73.2326 47.0598 73.2905 47.6476 73.5118 48.1819L73.5118 48.1819C73.7331 48.7161 74.1077 49.1727 74.5886 49.494C75.0694 49.8153 75.6347 49.9868 76.213 49.9868C76.5972 49.9868 76.9773 49.9112 77.3321 49.7642C77.6868 49.6172 78.0087 49.4019 78.2806 49.1305L78.2808 49.1303C78.5518 48.859 78.7672 48.5368 78.9139 48.182ZM78.9139 48.182C78.914 48.182 78.914 48.1819 78.914 48.1818L78.7363 48.1083L78.9139 48.1822C78.9139 48.1821 78.9139 48.1821 78.9139 48.182ZM66.7169 39.2858L66.7169 39.2858C67.7362 38.8635 68.8287 38.6462 69.9319 38.6462H74.4206C75.5243 38.6462 76.6166 38.8635 77.6356 39.2858L77.7092 39.1081L77.6356 39.2858C78.6547 39.708 79.581 40.3268 80.3614 41.107C81.141 41.8872 81.7598 42.8134 82.1825 43.8327C82.6045 44.852 82.8214 45.9445 82.8214 47.0477V58.1549L77.8441 53.034L77.6937 52.8793L77.5572 53.0464L72.7636 58.9174L67.1001 51.1711L66.9565 50.9747L66.7986 51.1598L61.5312 57.334V47.0477C61.5311 45.9444 61.7483 44.852 62.1704 43.8326C62.5926 42.8133 63.2114 41.8872 63.9915 41.107C64.7715 40.3268 65.6977 39.708 66.7169 39.2858Z" fill="white" stroke="#4493BE" stroke-width="0.384585"/>
<path d="M74.4206 38.4539H69.9319C68.8035 38.4539 67.686 38.6762 66.6433 39.1081C65.6007 39.54 64.6534 40.173 63.8555 40.971C63.0576 41.7691 62.4246 42.7164 61.9928 43.7591C61.561 44.8018 61.3388 45.9192 61.3389 47.0477V57.8557L66.9449 51.2846L72.7552 59.2317L77.7062 53.1681L83.0137 58.6286V47.0477C83.0137 45.9192 82.7918 44.8018 82.3601 43.7591C81.9277 42.7164 81.2948 41.7691 80.4973 40.971C79.6991 40.173 78.7516 39.54 77.7092 39.1081C76.6669 38.6762 75.5495 38.4539 74.4206 38.4539Z" stroke="#4493BE" stroke-width="0.769171" stroke-linecap="round" stroke-linejoin="round"/>
<path d="M77.7062 53.1664L72.7552 59.2301L66.9449 51.2845L61.3389 57.8556V59.289C61.3391 61.5679 62.2446 63.7534 63.856 65.3648C65.4675 66.9761 67.6531 67.8813 69.9319 67.8813H74.4206C76.6998 67.8813 78.8848 66.9761 80.4966 65.3648C82.1083 63.7534 83.0137 61.5679 83.0137 59.289V58.6293L77.7062 53.1664Z" stroke="#4493BE" stroke-width="0.769171" stroke-linecap="round" stroke-linejoin="round"/>
<path d="M76.2129 49.7944C76.7532 49.7944 77.2813 49.6341 77.7305 49.334C78.1798 49.0339 78.5295 48.6073 78.7362 48.1082C78.9428 47.6091 78.9971 47.0599 78.8915 46.53C78.7867 46.0002 78.5265 45.5134 78.1446 45.1315C77.7627 44.7495 77.2759 44.4893 76.7456 44.3839C76.216 44.2785 75.6664 44.3326 75.1675 44.5393C74.6685 44.7461 74.2422 45.0962 73.9422 45.5454C73.6416 45.9945 73.4814 46.5227 73.4814 47.0629C73.4814 47.4216 73.5521 47.7767 73.6894 48.1082C73.8267 48.4396 74.0279 48.7407 74.2812 48.9943C74.5353 49.2479 74.8361 49.4491 75.1675 49.5864C75.4988 49.7236 75.854 49.7944 76.2129 49.7944Z" stroke="#4493BE" stroke-width="0.769171" stroke-linecap="round" stroke-linejoin="round"/>
<path d="M69.9317 39.3139L69.9318 39.3139L74.4204 39.3108L74.4208 39.3108C76.4707 39.3131 78.4366 40.1285 79.8862 41.5781C81.3366 43.0279 82.152 44.9934 82.1544 47.0436L82.1544 47.0439V59.289V59.2893C82.152 61.3396 81.3366 63.3052 79.8863 64.755C79.8862 64.755 79.8862 64.755 79.8862 64.755M69.9317 39.3139L79.8862 64.755M69.9317 39.3139C67.8821 39.3161 65.917 40.1312 64.4674 41.5802L69.9317 39.3139ZM79.8862 64.755C78.4367 66.2048 76.4707 67.0203 74.4208 67.0229H74.4205H69.9319H69.9317C67.8814 67.0203 65.9159 66.2048 64.4662 64.755L64.5907 64.6305L64.4662 64.755C63.0166 63.3051 62.2011 61.3395 62.1989 59.2893L62.1989 59.289L62.1989 47.0439V47.0436C62.202 44.9939 63.0178 43.0292 64.4674 41.5802L79.8862 64.755ZM74.4203 68.7399H69.9322C67.4267 68.7363 65.0248 67.7394 63.2532 65.9678C61.4816 64.1962 60.4847 61.7944 60.4811 59.2889V47.044C60.4847 44.5385 61.4816 42.1367 63.2532 40.3651C65.0248 38.5935 67.4266 37.5967 69.9321 37.593H74.4204C76.9256 37.5967 79.3274 38.5935 81.099 40.3651C82.8707 42.1368 83.8676 44.5386 83.8713 47.0441V59.2888C83.8676 61.7943 82.8707 64.1961 81.099 65.9678C79.3273 67.7394 76.9255 68.7363 74.4203 68.7399Z" fill="black" stroke="#4493BE" stroke-width="0.384585"/>
<path d="M74.4205 68.9321H69.9319C67.3755 68.9285 64.9249 67.9114 63.1172 66.1037C61.3096 64.2961 60.2925 61.8455 60.2888 59.289V47.0439C60.2925 44.4874 61.3096 42.0368 63.1172 40.2292C64.9249 38.4215 67.3755 37.4044 69.9319 37.4008H74.4205C76.9767 37.4044 79.4273 38.4215 81.235 40.2292C83.0427 42.0368 84.0598 44.4874 84.0636 47.0439V59.289C84.0598 61.8455 83.0427 64.2961 81.235 66.1037C79.4273 67.9114 76.9767 68.9285 74.4205 68.9321ZM69.9319 39.5062C67.9332 39.5084 66.0169 40.3032 64.6033 41.7162C63.1897 43.1292 62.3942 45.0451 62.3912 47.0439V59.289C62.3934 61.2884 63.1886 63.2051 64.6022 64.619C66.0159 66.0328 67.9326 66.8281 69.9319 66.8306H74.4205C76.4196 66.8281 78.3367 66.0328 79.7503 64.619C81.1646 63.2052 81.9598 61.2885 81.9621 59.289V47.0439C81.9598 45.0445 81.1646 43.1278 79.7503 41.7141C78.3367 40.3005 76.4196 39.5053 74.4205 39.5031L69.9319 39.5062Z" stroke="#4493BE" stroke-width="0.769171" stroke-miterlimit="10"/>
<path d="M41.0511 95.2456H38.4558L36.4514 93.3629C35.723 92.6787 34.764 92.293 33.7645 92.2831C32.7651 92.2724 31.7983 92.6382 31.0559 93.3071C30.0654 94.1994 29.4678 95.4469 29.3932 96.7778C29.3186 98.1087 29.7733 99.4151 30.6579 100.412L37.3216 102.897L76.8552 102.047C76.8552 100.243 76.1389 98.5136 74.8631 97.2378C73.5876 95.9627 71.8577 95.2456 70.0538 95.2456H57.4956" stroke="#4493BE" stroke-width="0.769171" stroke-linecap="round" stroke-linejoin="round"/>
<path d="M35.3706 96.875C35.3706 97.7484 34.6627 98.456 33.7896 98.456C32.9164 98.456 32.2087 97.7484 32.2087 96.875C32.2087 96.0023 32.9165 95.294 33.7896 95.294C34.6627 95.294 35.3706 96.0023 35.3706 96.875Z" fill="black" stroke="#4493BE" stroke-width="0.384585"/>
<path d="M39.0116 39.1868L39.0116 39.1868C39.4921 39.0135 39.9985 38.9254 40.5079 38.9258C39.7718 40.6602 39.3795 42.5217 39.3535 44.4065C38.6366 44.6851 38.0147 45.1657 37.5641 45.7913L37.5641 45.7914C37.2017 46.2946 36.9634 46.8734 36.8649 47.4803C36.26 46.4184 35.9641 45.2041 36.0169 43.9756L36.0169 43.9755C36.0776 42.563 36.5962 41.2086 37.4941 40.1167C37.9313 39.7067 38.4476 39.3902 39.0116 39.1868Z" fill="#4493BE" stroke="#4493BE" stroke-width="0.384585"/>
<path d="M39.5446 44.541C39.5538 42.5422 39.9805 40.5673 40.7974 38.7429C40.1689 38.7027 39.5388 38.7922 38.9463 39.0059C38.3538 39.2196 37.8117 39.5529 37.3535 39.985C36.4242 41.1108 35.8875 42.5089 35.8248 43.9673C35.7621 45.4257 36.1768 46.8647 37.006 48.0661C37.0168 47.2892 37.2661 46.5343 37.7201 45.9037C38.1742 45.2732 38.8111 44.7975 39.5446 44.541Z" stroke="#4493BE" stroke-width="0.769171" stroke-linecap="round" stroke-linejoin="round"/>
<path d="M41.2873 44.3653C41.3159 42.4389 41.7351 40.5382 42.5195 38.7785C42.1192 38.8313 41.5246 38.7494 40.7975 38.7479C39.9806 40.5722 39.5539 42.5471 39.5447 44.546C40.1035 44.3507 40.7003 44.2888 41.2873 44.3653Z" stroke="#4493BE" stroke-width="0.769171" stroke-linecap="round" stroke-linejoin="round"/>
<path d="M47.071 37.319L47.0711 37.319C48.7997 37.0021 50.0343 37.5099 50.7147 38.3322C51.3978 39.1577 51.5489 40.3298 51.0542 41.404C50.7839 41.964 50.3706 42.4428 49.856 42.792C49.3409 43.1415 48.7427 43.3487 48.1218 43.3928L48.1218 43.3928L48.1192 43.393C47.2449 43.4667 46.4474 43.4947 45.8683 43.5042C45.5789 43.509 45.3443 43.5091 45.1823 43.5081C45.1013 43.5076 45.0384 43.5068 44.996 43.5061L44.9478 43.5052L44.9358 43.5049L44.9328 43.5049L44.9321 43.5049L44.932 43.5048L44.9319 43.5048H44.9319L44.7777 43.501L44.7405 43.6508C44.5671 44.3497 44.2808 45.015 43.8934 45.6207C43.6053 45.2629 43.2571 44.957 42.8636 44.7172C42.4399 44.459 41.9722 44.2825 41.4846 44.1963C41.533 42.3875 41.9303 40.6047 42.655 38.9463C42.8808 38.9016 43.0921 38.8155 43.3095 38.7094C43.4354 38.648 43.5661 38.5785 43.7036 38.5051L43.7225 38.495C43.8552 38.4242 43.9955 38.3494 44.1491 38.2718C44.7878 37.9491 45.6616 37.5769 47.071 37.319Z" fill="#4493BE" stroke="#4493BE" stroke-width="0.384585"/>
<path d="M47.0364 37.1298C44.1756 37.6533 43.4715 38.6459 42.521 38.7737C41.7366 40.5335 41.3174 42.4341 41.2888 44.3606C41.8113 44.4298 42.3135 44.6072 42.7635 44.8814C43.2135 45.1556 43.6014 45.5207 43.9024 45.9533C44.3792 45.2702 44.7266 44.5055 44.9272 43.6971C44.9272 43.6971 46.3759 43.7331 48.1354 43.5846C48.7901 43.5381 49.4209 43.3196 49.964 42.9511C50.5071 42.5826 50.9432 42.0772 51.2281 41.4861C52.2774 39.2107 50.6021 36.4762 47.0364 37.1298Z" stroke="#4493BE" stroke-width="0.769171" stroke-linecap="round" stroke-linejoin="round"/>
<path d="M80.8616 78.6871C80.9573 78.6978 81.0545 78.6771 81.1379 78.6282C81.2221 78.5799 81.2879 78.5065 81.3262 78.4177C81.3652 78.3289 81.3744 78.2302 81.353 78.1361C81.3323 78.0419 81.281 77.957 81.2083 77.8934C79.82 76.6483 78.2389 75.6365 76.5268 74.8972C76.5268 74.8972 74.5707 70.8616 66.7483 71.7311C65.0618 72.5124 63.4511 73.4469 61.9367 74.5245C60.5728 75.5278 59.118 76.4011 57.5912 77.1327C57.5912 77.1327 52.0908 65.8541 44.5806 58.7764L45.3322 55.4028C48.9001 55.983 49.2927 53.7827 49.2407 50.1772C49.2039 47.9462 48.9299 45.7255 48.4233 43.5526C47.262 43.6694 46.095 43.7187 44.9281 43.7003C44.7271 44.5086 44.3798 45.2733 43.9033 45.9564C44.3507 46.6064 44.5844 47.3797 44.5717 48.1687C44.559 48.9577 44.3005 49.7231 43.8324 50.3584C43.3643 50.9936 42.7097 51.467 41.9598 51.7128C41.21 51.9584 40.4021 51.9642 39.6489 51.7293C38.7455 53.6322 37.4398 55.3164 35.8222 56.6656C29.0767 61.8224 28.6481 70.4629 30.5231 78.1238C31.8829 83.4956 34.523 88.4588 38.2177 92.5884C39.8908 94.3946 41.7981 95.9681 43.8888 97.2684C44.7733 97.8294 45.7642 98.2013 46.7993 98.3621C47.8344 98.522 48.8914 98.4669 49.9042 98.1998C53.8574 97.1919 57.5918 95.4653 60.9211 93.1073C63.974 90.9155 65.9079 88.6685 71.2461 83.3173C71.2461 83.3173 73.389 82.5306 74.8431 83.3992C75.5265 83.8538 76.2681 84.2135 77.0472 84.4706C77.149 84.4967 77.2569 84.489 77.3541 84.4485C77.4513 84.4079 77.5332 84.3367 77.586 84.2456C77.6396 84.1553 77.6626 84.0497 77.6511 83.9449C77.6388 83.84 77.5937 83.7421 77.5217 83.6655C76.7028 82.8061 75.2625 81.3963 74.4712 81.2257C73.3232 80.9769 71.8224 80.7075 71.8224 80.7075C71.8224 80.7075 74.7398 81.0596 75.1745 81.0596C75.5977 81.0596 78.2411 83.2354 79.4871 83.126C79.5958 83.1168 79.6991 83.0762 79.7848 83.0089C79.8705 82.9423 79.9356 82.8512 79.9708 82.7487C80.0068 82.6461 80.0113 82.5344 79.9853 82.4288C79.9585 82.3231 79.9027 82.2275 79.8231 82.1532C78.7799 81.1782 76.5375 79.1547 75.7538 79.0292C74.7191 78.8639 72.1714 78.4292 72.1714 78.4292C72.8739 78.4583 73.576 78.4904 74.2775 78.5264C75.2992 78.5784 76.4495 78.3389 77.3603 78.9144C78.271 79.4899 79.2399 80.6088 80.3688 80.6846C80.4858 80.6869 80.6007 80.654 80.6986 80.5897C80.7966 80.5262 80.8731 80.4343 80.9183 80.3257C80.9626 80.2177 80.9741 80.0991 80.9504 79.9843C80.9267 79.8695 80.8693 79.7647 80.7851 79.6835C79.8078 78.7384 77.6075 76.6643 76.9546 76.5051C76.6738 76.4516 76.3891 76.421 76.1028 76.4141C77.0097 76.4141 77.1789 76.3727 77.4689 76.5847C77.9733 76.9521 80.2486 78.6083 80.8616 78.6871Z" stroke="#4493BE" stroke-width="0.769171" stroke-linecap="round" stroke-linejoin="round"/>
<path d="M76.5268 74.8972C76.5268 74.8972 69.6388 74.4624 68.2689 74.8972C66.6073 75.5714 65.1057 76.5862 63.8614 77.8773C60.9194 81.0044 51.2335 88.1771 49.7028 87.1278C47.5791 85.6737 45.4706 82.1991 44.465 79.8572C43.1416 76.4378 42.2128 72.8782 41.6968 69.2477" stroke="#4493BE" stroke-width="0.769171" stroke-linecap="round" stroke-linejoin="round"/>
<path d="M37.3513 55.3406C37.3513 55.3406 39.6282 60.2632 44.5783 58.7762" stroke="#4493BE" stroke-width="0.769171" stroke-linecap="round" stroke-linejoin="round"/>
<path d="M31.8186 82.1883C31.8186 82.1883 40.4783 79.926 43.5089 77.2565" stroke="#4493BE" stroke-width="0.769171" stroke-linecap="round" stroke-linejoin="round"/>
<path d="M33.7896 86.3288C33.7896 86.3288 42.4178 83.9625 45.1164 81.2142" stroke="#4493BE" stroke-width="0.769171" stroke-linecap="round" stroke-linejoin="round"/>
<path d="M57.5911 77.1328C58.3626 78.5846 59.0107 80.0992 59.5289 81.6597" stroke="#4493BE" stroke-width="0.769171" stroke-linecap="round" stroke-linejoin="round"/>
<path d="M41.1627 51.8872C43.244 51.6819 44.7649 49.8282 44.5595 47.7469C44.3543 45.6656 42.5007 44.1448 40.4193 44.35C38.338 44.5554 36.8172 46.409 37.0225 48.4903C37.2277 50.5716 39.0814 52.0925 41.1627 51.8872Z" stroke="#4493BE" stroke-width="0.769171" stroke-linecap="round" stroke-linejoin="round"/>
<path d="M40.7915 51.9055C40.7915 51.9055 41.3869 66.7023 47.844 71.7312C54.301 76.7601 59.1119 80.4375 59.1119 80.4375" stroke="#4493BE" stroke-width="0.769171" stroke-linecap="round" stroke-linejoin="round"/>
<path d="M44.6189 57.7105L43.7307 54.9482L45.1071 55.5187L44.6189 57.7105Z" fill="black" stroke="#4493BE" stroke-width="0.384585"/>
<path d="M45.3299 55.4029L43.4204 54.6115L44.6526 58.4435L45.3299 55.4029Z" stroke="#4493BE" stroke-width="0.769171" stroke-linecap="round" stroke-linejoin="round"/>
</svg>
